<svg xmlns="http://www.w3.org/2000/svg">
<symbol id="facebook" viewBox="0 0 448 512"><path fill="currentColor" d="M400 32H48A48 48 0 0 0 0 80v352a48 48 0 0 0 48 48h137.25V327.69h-63V256h63v-54.64c0-62.15 37-96.48 93.67-96.48 27.14 0 55.52 4.84 55.52 4.84v61h-31.27c-30.81 0-40.42 19.12-40.42 38.73V256h68.78l-11 71.69h-57.78V480H400a48 48 0 0 0 48-48V80a48 48 0 0 0-48-48z"/></symbol>
<symbol id="heart" viewBox="0 0 493.3 439.2"> <path fill="none" stroke="#F797A5" stroke-width="4" stroke-linejoin="round" d="M139.5,1.9C2.1-0.6-125.1,214.4,245.5,437.3c0.4-0.7,2-0.7,2.4,0c382.5-230,234.7-451.6,92.6-434.4
	c-55.4,6.7-81.5,37.5-93.8,63.9c-12.3-26.4-38.4-57.2-93.8-63.9C148.4,2.3,144,2,139.5,1.9L139.5,1.9z"/> </symbol>
<symbol id="instagram" viewBox="0 0 49.6 49.6"> <g> <path d="M24.8,11.9c-7,0-12.8,5.7-12.8,12.8s5.7,12.8,12.8,12.8s12.8-5.8,12.8-12.8S31.8,11.9,24.8,11.9z M24.8,32.9
		c-4.5,0-8.2-3.7-8.2-8.2s3.7-8.2,8.2-8.2s8.2,3.7,8.2,8.2S29.3,32.9,24.8,32.9z"/> <circle cx="38.1" cy="11.6" r="2.9"/> <path d="M45.6,4.1C43,1.4,39.3,0,35.1,0H14.5C5.8,0,0,5.8,0,14.5V35c0,4.3,1.4,8,4.2,10.7c2.7,2.6,6.3,3.9,10.4,3.9H35
		c4.3,0,7.9-1.4,10.5-3.9c2.7-2.6,4.1-6.3,4.1-10.6V14.5C49.6,10.3,48.2,6.7,45.6,4.1z M45.2,35.1c0,3.1-1.1,5.6-2.9,7.3
		S38,45,35,45H14.6c-3,0-5.5-0.9-7.3-2.6c-1.8-1.8-2.7-4.3-2.7-7.4V14.5c0-3,0.9-5.5,2.7-7.3c1.7-1.7,4.3-2.6,7.3-2.6h20.6
		c3,0,5.5,0.9,7.3,2.7c1.7,1.8,2.7,4.3,2.7,7.2V35.1L45.2,35.1z"/> </g> </symbol>
<symbol id="twitter" viewBox="0 0 49.3 40"> <path d="M49.3,4.7c-1.8,0.8-3.8,1.3-5.8,1.6c2.1-1.3,3.7-3.2,4.4-5.6c-2,1.2-4.1,2-6.4,2.5C39.6,1.2,37,0,34.1,0
	C28.5,0,24,4.5,24,10.1c0,0.8,0.1,1.6,0.3,2.3C15.9,12,8.4,8,3.4,1.8C2.6,3.3,2.1,5.1,2.1,6.9c0,3.5,1.8,6.6,4.5,8.4
	c-1.7-0.1-3.2-0.5-4.6-1.3c0,0,0,0.1,0,0.1c0,4.9,3.5,9,8.1,9.9c-0.8,0.2-1.7,0.4-2.7,0.4c-0.7,0-1.3-0.1-1.9-0.2c1.3,4,5,6.9,9.4,7
	c-3.5,2.7-7.8,4.3-12.6,4.3c-0.8,0-1.6,0-2.4-0.1C4.5,38.4,9.8,40,15.5,40c18.6,0,28.8-15.4,28.8-28.8c0-0.4,0-0.9,0-1.3
	C46.2,8.5,47.9,6.8,49.3,4.7z"/> </symbol>
</svg>